<svg width="149" height="39" viewBox="0 0 149 39" fill="none" xmlns="http://www.w3.org/2000/svg">
<g clip-path="url(#clip0_1723_1356)">
<path d="M27.1386 36.2637L27.141 24.6189L12.8841 24.6179L12.8817 36.2626L1.38427 36.2588L1.42372 35.4096C1.44713 34.865 1.4706 34.3297 1.48488 33.7944C1.66828 28.9395 1.76134 24.2975 1.76504 19.9976L1.75795 19.0749C1.75054 14.526 1.63919 9.61793 1.42497 4.48926L1.39156 3.73288L2.21013 3.72658L12.889 3.73669L12.8867 15.3814L27.1435 15.3825L27.1459 3.73773L29.7581 3.73609L37.8983 3.73805L38.6433 3.73232L38.6123 4.48918C38.4254 8.88277 38.3244 13.6909 38.3177 18.7936L38.3269 19.9931C38.318 24.8098 38.3997 29.4504 38.5434 33.7861L38.5445 33.9245C38.5669 34.4503 38.5893 34.9761 38.6117 35.4926L38.6451 36.249L27.1476 36.2452L27.1386 36.2637Z" fill="#171717"/>
<path d="M2.13297 4.45606L2.19735 4.45556L4.01858 4.46L12.1588 4.46196L12.1616 14.3904L12.1748 16.1066L14.0512 16.1106L27.8666 16.115L27.8534 14.3989L27.869 4.47027L29.7546 4.47422L37.8304 4.47667L37.8948 4.47618C37.7084 8.94358 37.6072 13.7241 37.6004 18.8083C37.6034 19.205 37.6065 19.611 37.6097 20.017C37.6104 24.8982 37.6827 29.5112 37.8356 33.8376C37.8584 34.4095 37.8812 34.9814 37.9039 35.5533L27.8782 35.5567L27.865 33.8405L27.8806 23.9119L12.1797 23.9128L12.1825 33.8412L12.1957 35.5574L2.15154 35.5608C2.17473 34.9886 2.19792 34.4163 2.22111 33.844C2.40422 28.9522 2.49756 24.3471 2.50106 20.0195C2.499 19.7519 2.49694 19.4844 2.49488 19.2168L2.49396 19.0969C2.47729 14.5387 2.36622 9.66763 2.15158 4.48359M0.631773 3.00971L0.689331 4.5133C0.903552 9.64198 1.01483 14.5408 1.03129 19.0712L1.03221 19.1911C1.03327 19.3295 1.03434 19.4679 1.0354 19.6063C1.0364 19.7355 1.03739 19.8647 1.03839 19.9939C1.03461 24.2845 0.941478 28.9173 0.767136 33.7537C0.743732 34.2983 0.729454 34.8336 0.70605 35.3782L0.706689 35.4612L0.644681 36.9657L2.14386 36.9542L12.1698 36.9693L13.6137 36.9582L13.6119 35.528L13.5987 33.8119L13.6163 25.3319L26.4383 25.3348L26.4391 33.8146L26.4523 35.5307L26.4359 36.9795L27.8799 36.9684L37.9058 36.9835L39.4049 36.972L39.3474 35.4776C39.3249 34.9426 39.3024 34.3984 39.2889 33.8449L39.2883 33.7618C39.1354 29.4355 39.0538 24.804 39.0536 19.9967C39.0519 19.7844 39.0503 19.5722 39.0487 19.36C39.0472 19.1663 39.0458 18.9817 39.0443 18.788C39.0603 13.7036 39.1614 8.90472 39.3392 4.52043L39.4013 3.02514L37.902 3.01823L37.8376 3.01872L29.7618 3.01626L27.867 3.01239L26.423 3.0235L26.4248 4.4537L26.4276 14.3822L26.4296 14.6497L14.0583 14.6434L13.6076 14.6469L13.6056 14.3793L13.6028 4.45085L13.5916 3.00227L12.166 3.00401L4.02576 3.00205L2.20453 2.99761L2.14015 2.9981L0.640828 2.99118L0.631773 3.00971Z" fill="#171717"/>
<path d="M39.3075 36.2716L39.3386 35.5239C39.5629 30.0043 39.6791 24.7901 39.6792 20.0196C39.6793 15.2491 39.5656 10.0367 39.3391 4.5113L39.3057 3.75493L73.9268 3.75614L73.924 12.9465L50.837 12.9395L50.8392 15.6154C52.1087 15.6333 53.8656 15.6475 56.1835 15.6481C57.1308 15.6408 58.0782 15.6428 59.0348 15.6354C62.6401 15.6077 66.3923 15.5234 70.19 15.3927L70.9349 15.3685L70.9386 24.2266L70.1934 24.1954C65.3815 24.0202 60.6715 23.9365 56.1829 23.9342C54.748 23.936 53.4695 23.9366 52.3934 23.9449C51.8231 23.9492 51.3081 23.9532 50.8482 23.9567L50.8438 26.9741C51.8188 26.9666 52.7753 26.9592 53.7042 26.9521C62.6257 26.8834 69.3207 26.7304 73.596 26.5038L74.497 26.4599L74.3475 27.3469C74.1537 28.4649 74.0341 29.6561 73.9974 30.8651C73.9515 32.065 73.9356 33.5876 73.9321 35.5254L73.9376 36.2451L39.3073 36.2439L39.3075 36.2716Z" fill="#171717"/>
<path d="M40.0563 4.46878L73.2058 4.4721L73.2102 12.2229L50.1233 12.216L50.1181 16.3221C51.4796 16.3486 53.5033 16.3607 56.1799 16.3678C57.1273 16.3605 58.0839 16.3624 59.0404 16.355C62.6642 16.3271 66.3979 16.243 70.214 16.1122L70.2155 23.4755C65.376 23.3005 60.7028 23.2165 56.1774 23.2144C54.715 23.2164 53.4456 23.2169 52.3787 23.2252C51.4866 23.232 50.7416 23.2377 50.1162 23.2518L50.1137 27.6993C51.3461 27.6898 52.5419 27.6899 53.7007 27.681C62.6774 27.6119 69.3172 27.4593 73.6201 27.2324C73.4175 28.4058 73.298 29.6063 73.2524 30.8523C73.2067 32.0891 73.1912 33.6579 73.1873 35.5402L40.0378 35.5369C40.262 29.9989 40.3785 24.8215 40.3781 19.9957C40.3778 15.1699 40.2644 9.99428 40.0379 4.4597M38.5643 3.02236L38.6219 4.52595C38.8483 10.0421 38.9619 15.2453 38.9617 20.0066C38.9616 24.7678 38.8453 29.9729 38.6209 35.4832L38.5589 36.9877L40.0581 36.9762L73.2076 36.9888L74.6516 36.9776L74.6498 35.5474C74.6534 33.6189 74.6693 32.1055 74.7154 30.9149C74.7523 29.7335 74.8722 28.5792 75.0569 27.489L75.3651 25.7057L73.5631 25.8026C69.297 26.0292 62.6112 26.173 53.7081 26.2414L51.5743 26.2579L51.5621 24.6801L52.4083 24.6736C53.4844 24.6653 54.7628 24.6555 56.1978 24.6629C60.6772 24.6653 65.3872 24.7491 70.1807 24.9244L71.6711 24.9775L71.6596 23.4828L71.6674 16.1194L71.6559 14.6247L70.1754 14.6822C66.3869 14.8129 62.6348 14.8971 59.0386 14.9248C58.0821 14.9322 57.1255 14.9395 56.1873 14.9375C54.2833 14.9337 52.7564 14.927 51.5698 14.9177L51.5602 13.6721L73.2122 13.6716L74.6562 13.6605L74.6544 12.2303L74.6499 4.47944L74.6388 3.03085L73.2131 3.0326L40.0637 3.02928L38.5645 3.04082L38.5644 3.03159L38.5643 3.02236Z" fill="#171717"/>
<path d="M89.863 36.7039C86.8736 36.6992 84.1734 36.0187 81.8452 34.6802C79.5077 33.3326 77.6439 31.3815 76.3185 28.8727C75.0025 26.3823 74.336 23.4439 74.3382 20.1498C74.3361 19.873 74.3339 19.5869 74.3498 19.2639C74.5239 14.3906 76.1215 10.4383 79.116 7.51787C82.2292 4.48585 87.0644 2.91694 93.4934 2.86747L93.8245 2.86492C94.1372 2.86252 94.4223 2.86032 94.6984 2.87665C98.0839 2.96133 101.152 3.58364 103.819 4.71652C106.236 5.74982 108.391 7.28341 110.2 9.26257C110.553 9.6474 110.905 10.0691 111.249 10.5002L111.788 11.1881L111.009 11.5908C109.662 12.284 106.996 13.6794 103.515 15.5239L101.977 16.3846L101.587 16.0001C100.559 14.9653 99.3384 14.1812 97.9638 13.6566C96.5709 13.1321 95.0788 12.8668 93.5244 12.8695L93.4048 12.8704C90.9491 12.8893 89.1145 13.5401 87.9469 14.804C86.8978 15.9378 86.3102 17.271 86.1661 18.8592C86.1405 19.1178 86.1333 19.3762 86.1353 19.6346C86.133 21.7291 86.771 23.3667 88.0686 24.6393C89.3567 25.8935 91.4036 26.5329 94.1629 26.5301L94.2457 26.5295C94.5125 26.5274 94.7516 26.5256 94.9813 26.4961C95.8914 26.4338 96.8008 26.2699 97.6817 26.0048C98.113 25.8723 98.5164 25.7031 98.892 25.4972L98.4965 25.5002L98.4535 24.6978L98.1365 24.1466L98.3014 24.0531L98.3566 24.0526C98.5399 23.9682 98.7232 23.8837 98.8971 23.7809L91.8883 23.7794L92.0265 17.8361L92.5601 17.8504L92.5913 17.1212L92.6281 17.1209L111.567 17.1229L111.567 36.2878L102.7 36.2914L102.041 30.7325C101.106 32.3821 99.838 33.6929 98.2449 34.6463C95.9926 35.9924 93.2293 36.6872 90.0378 36.7118L89.8539 36.7132L89.863 36.7039Z" fill="#171717"/>
<path d="M93.508 3.57775L93.8299 3.57527C94.1151 3.57308 94.4002 3.57089 94.6854 3.58715C98.0066 3.67232 100.954 4.26786 103.548 5.37363C105.882 6.37066 107.926 7.83129 109.68 9.74628C110.023 10.122 110.366 10.5253 110.691 10.938C109.409 11.5938 106.908 12.9049 103.179 14.8805L102.117 15.4792C101.005 14.362 99.7105 13.5323 98.2345 12.9716C96.7586 12.4201 95.1927 12.1369 93.5462 12.1311L93.4267 12.132C90.7594 12.1525 88.7599 12.8784 87.4462 14.291C86.2969 15.5363 85.6369 17.027 85.4755 18.7722C85.4501 19.0492 85.4338 19.3261 85.436 19.6121C85.4352 21.9005 86.1484 23.7312 87.594 25.1319C89.0305 26.5326 91.2249 27.2262 94.1867 27.2311L94.2695 27.2304C94.5362 27.2284 94.7937 27.2264 95.0602 27.1967C96.0347 27.1338 96.99 26.9604 97.9168 26.6764C99.1281 26.3073 100.144 25.6628 100.965 24.7522L98.5183 24.7525C99.4627 24.367 100.277 23.7978 100.961 23.0452L94.5316 23.0485L92.646 23.0446L92.7715 17.8394L92.6426 17.822L94.5283 17.8259L110.855 17.8295L110.849 33.8387L110.862 35.5549L103.338 35.5574L102.443 27.9796C101.59 30.6897 100.07 32.7037 97.8721 34.0124C95.7205 35.3023 93.1133 35.959 90.0322 35.9828L89.8574 35.9841C86.9876 35.9785 84.4257 35.3431 82.1991 34.0592C79.9633 32.7753 78.2199 30.9341 76.9506 28.5356C75.6812 26.137 75.0527 23.346 75.0556 20.1441C75.0534 19.8581 75.0512 19.5721 75.0674 19.2859C75.2336 14.588 76.75 10.8301 79.6166 8.03064C82.611 5.11026 87.2355 3.63524 93.4989 3.58705M93.497 2.13839C86.8748 2.18934 81.8745 3.82412 78.6244 6.9956C75.493 10.0462 73.8139 14.1652 73.6321 19.2324C73.6254 19.5554 73.6185 19.8507 73.6207 20.1367C73.6194 23.56 74.3143 26.6089 75.6864 29.2004C77.0772 31.8379 79.0336 33.8805 81.4912 35.3011C83.9211 36.7034 86.7412 37.4198 89.8685 37.4235L90.0616 37.422C93.3819 37.3964 96.2644 36.6638 98.6358 35.2522C99.7711 34.5699 100.749 33.7227 101.578 32.7198L101.932 35.7251L102.08 36.9973L103.359 36.9875L110.864 36.9943L112.308 36.9832L112.306 35.553L112.293 33.8369L112.308 17.8275L112.297 16.379L110.871 16.3807L103.458 16.3824L103.888 16.1392C107.415 14.2758 110.007 12.9179 111.363 12.2154L112.921 11.4191L111.843 10.0341C111.49 9.58472 111.128 9.15382 110.757 8.75068C108.874 6.69827 106.645 5.10989 104.126 4.03123C101.385 2.86201 98.2254 2.22197 94.7478 2.12877C94.4626 2.12173 94.1774 2.1147 93.8555 2.11718L93.5244 2.11973L93.497 2.13839ZM94.2493 25.8004L94.1757 25.801C91.6187 25.8022 89.7379 25.2261 88.5887 24.1092C87.4303 22.9832 86.8764 21.5203 86.871 19.6196C86.8691 19.3797 86.8857 19.1396 86.9022 18.8996C87.0292 17.4776 87.5536 16.2925 88.4931 15.2703C89.5239 14.1551 91.1844 13.5887 93.4286 13.5714L93.5389 13.5706C95.0014 13.5686 96.4107 13.8253 97.7297 14.3134C98.9566 14.7746 100.047 15.4674 100.983 16.3737L94.5355 16.3772L92.6499 16.3733L92.5855 16.3738L92.5323 17.8228L91.3363 17.7951L91.2108 23.0002L91.1762 24.4769L92.6478 24.4655L94.5335 24.4787L98.369 24.4769L98.4716 24.6606L98.4734 24.8913C98.171 25.0505 97.841 25.1914 97.4923 25.2956C96.6572 25.5512 95.8122 25.7053 94.9572 25.758L94.9388 25.7582C94.7182 25.7783 94.4975 25.78 94.2491 25.7819L94.2493 25.8004Z" fill="#171717"/>
<path d="M112.486 36.2806L112.518 35.533C112.742 30.0134 112.858 24.7991 112.858 20.0286C112.858 15.2582 112.745 10.0457 112.518 4.52033L112.485 3.76396L147.106 3.76518L147.103 12.9555L124.016 12.9486L124.018 15.6245C125.288 15.6424 127.045 15.6565 129.362 15.6572C130.31 15.6499 131.257 15.6518 132.223 15.6444C135.828 15.6166 139.58 15.5324 143.378 15.4017L144.123 15.3775L144.127 24.2356L143.382 24.2044C138.579 24.0291 133.86 23.9455 129.371 23.9431C127.936 23.9449 126.658 23.9455 125.582 23.9538C125.011 23.9582 124.496 23.9622 124.036 23.9657L124.032 26.983C125.007 26.9755 125.963 26.9682 126.892 26.961C135.814 26.8924 142.509 26.7394 146.784 26.5127L147.685 26.4689L147.536 27.3558C147.342 28.4738 147.222 29.665 147.186 30.8741C147.14 32.074 147.124 33.5966 147.12 35.5343L147.126 36.254L112.495 36.2529L112.486 36.2806Z" fill="#171717"/>
<path d="M113.244 4.48702L146.394 4.49034L146.398 12.2412L123.311 12.2342L123.306 16.3404C124.668 16.3668 126.691 16.3789 129.368 16.386C130.315 16.3787 131.272 16.3806 132.229 16.3732C135.852 16.3454 139.586 16.2613 143.402 16.1304L143.404 23.4937C138.564 23.3187 133.891 23.2347 129.366 23.2326C127.903 23.2346 126.643 23.2351 125.567 23.2434C124.675 23.2503 123.921 23.2561 123.304 23.27L123.302 27.7176C124.534 27.7081 125.73 27.7081 126.889 27.6992C135.866 27.6301 142.505 27.4775 146.808 27.2507C146.606 28.4241 146.486 29.6245 146.441 30.8706C146.395 32.1166 146.379 33.6761 146.375 35.5585L113.226 35.5552C113.45 30.0171 113.567 24.8398 113.566 20.0139C113.566 15.1881 113.453 10.0125 113.226 4.47794M111.743 3.04067L111.801 4.54426C112.027 10.0604 112.141 15.2637 112.141 20.0249C112.141 24.7861 112.024 29.9912 111.8 35.5015L111.738 37.0061L113.237 36.9945L146.387 37.0071L147.831 36.996L147.829 35.5657C147.832 33.6372 147.848 32.1239 147.894 30.9332C147.931 29.7518 148.051 28.5975 148.236 27.5073L148.544 25.724L146.742 25.821C142.476 26.0476 135.79 26.1913 126.887 26.2598L124.753 26.2762L124.741 24.6984L125.587 24.6919C126.663 24.6836 127.942 24.6738 129.368 24.6813C133.847 24.6837 138.557 24.7674 143.35 24.9428L144.841 24.9959L144.829 23.5012L144.837 16.1378L144.826 14.6431L143.345 14.7006C139.557 14.8313 135.805 14.9155 132.208 14.9432C131.252 14.9505 130.295 14.9579 129.357 14.9559C127.453 14.9521 125.926 14.9454 124.74 14.936L124.73 13.6904L146.382 13.69L147.826 13.6788L147.824 12.2486L147.82 4.49782L147.809 3.04923L146.383 3.05098L113.233 3.04766L111.734 3.0592L111.734 3.04997L111.743 3.04067Z" fill="#171717"/>
<path d="M37.8228 34.5483L27.144 34.5474L27.1464 22.9026L12.8895 22.9016L12.8871 34.5463L2.1347 34.546L1.38971 34.5518L1.42068 33.7949C1.6381 28.5798 1.74742 23.6609 1.75905 19.1948L1.7582 19.0841C1.75614 18.8166 1.75408 18.549 1.75209 18.2906C1.75608 14.0276 1.656 9.38712 1.48034 4.48882C1.45761 3.92614 1.43482 3.35423 1.41195 2.77309L1.37854 2.01671L12.876 2.02053L12.8736 13.6653L27.1305 13.6663L27.1329 2.02156L38.6303 2.02538L38.5994 2.78224C38.576 3.33606 38.5528 3.89909 38.5295 4.46213L38.5297 4.48981C38.3785 8.74472 38.2946 13.3866 38.2955 18.2863C38.2968 18.4524 38.2981 18.6184 38.2995 18.7938C38.3033 24.0809 38.4066 29.1274 38.5988 33.7949L38.6322 34.5513L37.8137 34.5576L37.8228 34.5483Z" fill="#FDC238"/>
<path d="M2.13836 2.74905L12.1642 2.75496L12.1774 4.47112L12.1618 14.3997L14.0474 14.4037L27.8628 14.4081L27.86 4.47964L27.8468 2.76348L37.8909 2.76002C37.8677 3.32306 37.8445 3.89533 37.8213 4.47682C37.6615 8.80561 37.5866 13.4198 37.5874 18.301C37.5887 18.4671 37.59 18.6424 37.5913 18.8084C37.5956 24.151 37.6985 29.1605 37.8909 33.8373L37.8265 33.8377L29.7507 33.8353L27.8651 33.8313L27.8622 23.9029L27.849 22.1867L12.1573 22.1875L12.1705 23.9037L12.1549 33.8323L4.08831 33.8297L2.19351 33.8259L2.12912 33.8264C2.33756 28.6391 2.45636 23.757 2.46728 19.1986L2.46636 19.0787C2.4643 18.8111 2.46231 18.5528 2.46025 18.2852C2.46382 13.9668 2.36394 9.354 2.18836 4.46493C2.16563 3.90225 2.14284 3.33033 2.11997 2.7492M0.637166 1.30271L0.694724 2.8063C0.717521 3.37821 0.740317 3.95012 0.763042 4.51281C0.938627 9.40187 1.03865 14.0332 1.03458 18.2869C1.03657 18.5453 1.03863 18.8129 1.04062 19.0712L1.04161 19.2004C1.02991 23.6572 0.911249 28.5578 0.702956 33.7635L0.640877 35.2588L2.131 35.2658L2.19538 35.2653L4.09019 35.2692L12.1568 35.2717L13.6008 35.2606L13.599 33.8304L13.5962 23.9019L13.5941 23.6344L26.4161 23.6372L26.4185 23.9417L26.421 33.8332L26.4321 35.2818L27.8578 35.2801L29.7434 35.284L37.8192 35.2865L37.8836 35.286L39.3921 35.2928L39.3345 33.78C39.1423 29.1218 39.0484 24.0844 39.0354 18.8066C39.034 18.6312 39.0327 18.4652 39.0314 18.2991C39.0305 13.3995 39.1053 8.76682 39.2658 4.52107L39.2653 4.46571C39.2887 3.9119 39.3029 3.36738 39.3263 2.8228L39.3883 1.31829L37.8891 1.32982L27.8632 1.31469L26.4192 1.3258L26.421 2.756L26.4342 4.47216L26.4168 12.9613L14.0455 12.955L13.5948 12.9585L13.5939 4.46945L13.5807 2.75329L13.5971 1.30449L12.1531 1.3156L2.13642 1.3004L0.637237 1.31193L0.637166 1.30271Z" fill="#171717"/>
<path d="M39.3129 34.5553L39.3439 33.8076C39.5682 28.2788 39.6843 23.0553 39.6846 18.3033C39.6849 13.5697 39.5712 8.35725 39.3445 2.79499L39.3111 2.03862L73.9323 2.04906L73.9294 11.2394L50.8425 11.2417L50.8447 13.9176C51.2034 13.9148 51.5991 13.9302 52.0222 13.9362C53.2364 13.9453 54.6346 13.953 56.189 13.9503C57.1455 13.9429 58.1113 13.9447 59.0863 13.9372C62.6641 13.9097 66.407 13.8255 70.2047 13.6948L70.9496 13.6706L70.9441 22.5288L70.1989 22.4976C65.387 22.3224 60.677 22.2387 56.1884 22.2363C54.7167 22.2384 53.429 22.2391 52.3345 22.2475C51.7919 22.2517 51.2952 22.2555 50.8445 22.259L50.8493 25.2762C51.2448 25.2732 51.6311 25.2702 52.0082 25.2673L53.6362 25.2548C62.6128 25.1857 69.3354 25.0325 73.6015 24.8151L74.5026 24.7713L74.3531 25.6582C74.2562 26.2126 74.178 26.813 74.1182 27.4132C74.0582 27.9858 74.0168 28.5766 74.003 29.1765C73.9571 30.3856 73.9416 31.9544 73.9377 33.8367L73.9432 34.5564L39.3129 34.5553Z" fill="#FDC238"/>
<path d="M40.0616 2.75245L73.211 2.75577L73.2242 4.47193L73.2063 10.5067L50.1194 10.509L50.1234 14.615C50.657 14.6294 51.2825 14.6338 52.0092 14.6467C53.1499 14.6563 54.548 14.664 56.176 14.6607C57.1417 14.6533 58.1075 14.6551 59.0825 14.6476C62.6971 14.6198 66.4032 14.5359 70.2101 14.4051L70.2054 16.1768L70.2023 21.7593C65.3629 21.5843 60.6897 21.5003 56.1642 21.4982C54.6742 21.5004 53.3865 21.5011 52.3012 21.5095C51.4366 21.5161 50.71 21.5217 50.1031 21.5356L50.1005 25.9831C50.7351 25.9783 51.3697 25.9734 51.986 25.9686L53.6139 25.9561C62.6182 25.8868 69.2856 25.7433 73.6068 25.507C73.501 26.0984 73.4229 26.708 73.3632 27.3174C73.3034 27.9084 73.262 28.5085 73.2392 29.1269C73.1935 30.3637 73.178 31.9324 73.1741 33.8148L41.9746 33.815L40.0154 33.8116C40.2395 28.2735 40.356 23.0962 40.3557 18.2703C40.3554 13.4445 40.242 8.26893 40.0154 2.73435M38.5604 1.31533L38.618 2.81892C38.8447 8.37196 38.9583 13.5752 38.9578 18.2996C38.9576 23.0516 38.8413 28.2566 38.617 33.7762L38.555 35.2807L40.0542 35.2692L42.0135 35.2818L73.2129 35.2817L74.6569 35.2705L74.655 33.8311C74.6498 31.958 74.6746 30.3984 74.7206 29.1986C74.7437 28.6171 74.776 28.0355 74.8361 27.4814C74.896 26.8904 74.9744 26.3177 75.0621 25.7726L75.3704 23.9894L73.5683 24.0863C69.3114 24.3128 62.6072 24.4567 53.6397 24.5257L51.5703 24.5416L51.5581 22.9639L52.3399 22.9578C53.4252 22.9495 54.7221 22.9395 56.1938 22.9466C60.6732 22.9491 65.3832 23.0328 70.1767 23.2081L71.6672 23.2613L71.6557 21.7665L71.6679 16.184L71.6727 14.4123L71.6612 12.9176L70.1807 12.9751C66.3922 13.1058 62.6585 13.1899 59.0899 13.2173C58.1241 13.2248 57.1492 13.2323 56.1926 13.2304C54.6566 13.233 53.2492 13.2254 52.035 13.2163C51.8787 13.2175 51.7223 13.2187 51.5752 13.2198L51.5656 11.9742L73.2176 11.9737L74.6616 11.9626L74.6597 10.5324L74.6593 4.49779L74.6461 2.78163L74.6626 1.33284L73.2186 1.34395L40.069 1.33141L38.5698 1.34294L38.5698 1.33371L38.5604 1.31533Z" fill="#171717"/>
<path d="M89.8588 34.9876C86.8694 34.9829 84.1692 34.3024 81.841 32.9639C81.3698 32.6907 80.9076 32.3898 80.4636 32.061C78.7707 30.8007 77.3691 29.1506 76.3144 27.1564C75.1196 24.8957 74.4554 22.2526 74.35 19.3099C74.3476 18.9962 74.3362 18.7103 74.3432 18.4242C74.3485 13.1369 75.9531 8.8893 79.1301 5.79219C82.2433 2.76017 87.0877 1.19118 93.5167 1.14172L93.8478 1.13917C97.5914 1.13805 100.954 1.76731 103.833 2.99084C106.121 3.96977 108.165 5.38426 109.899 7.20713C110.372 7.70176 110.836 8.23337 111.263 8.78372L111.802 9.47161L111.023 9.86514C110.877 9.94009 110.015 10.3804 110.015 10.3804C108.595 11.1203 106.415 12.2628 103.529 13.789L101.991 14.6497L101.602 14.2652C100.573 13.2304 99.3524 12.4463 97.9779 11.9217C96.585 11.3972 95.0929 11.1319 93.5384 11.1346L93.4189 11.1355C90.9632 11.1544 89.1286 11.8052 87.961 13.0691C86.7386 14.3888 86.1437 15.9712 86.1494 17.9089C86.1517 18.2041 86.1537 18.4625 86.1832 18.7114C86.3344 20.4357 86.952 21.8058 88.0826 22.9044C88.3792 23.1974 88.7216 23.4623 89.1096 23.6808C90.357 24.4186 92.0615 24.793 94.177 24.7952L94.2782 24.7944C95.4371 24.7855 96.5947 24.6105 97.705 24.2698C97.8885 24.213 98.0536 24.1564 98.2004 24.0999L98.3194 24.0251L98.3746 24.0247C98.5579 23.9403 98.7412 23.8558 98.9151 23.753L91.9247 23.7514L91.9246 15.3731L111.581 15.3787L111.581 34.5436L105.041 34.5386L102.714 34.538L102.055 28.9883C101.12 30.638 99.852 31.9488 98.2589 32.9022C96.0066 34.2482 93.2525 34.943 90.0518 34.9676L89.8679 34.969L89.8588 34.9876Z" fill="#FDC238"/>
<path d="M93.5132 1.87065L93.8352 1.86818C97.5051 1.86762 100.738 2.4702 103.544 3.6666C105.749 4.60926 107.691 5.95995 109.379 7.71859C109.833 8.19491 110.269 8.69905 110.697 9.24017C110.412 9.38076 110.083 9.55862 109.689 9.75542C108.269 10.4953 106.107 11.6284 103.194 13.1733L102.131 13.772C101.019 12.6549 99.7249 11.8252 98.2489 11.2644C96.773 10.7129 95.2071 10.4297 93.5607 10.4239L93.4411 10.4248C90.7738 10.4454 88.7743 11.1712 87.4606 12.5839C86.1196 14.0244 85.4526 15.8012 85.4505 17.9142C85.4528 18.2095 85.455 18.4955 85.4848 18.7813C85.6464 20.6624 86.3482 22.2164 87.5993 23.434C87.9422 23.7728 88.3308 24.065 88.7559 24.3201C90.1234 25.1308 91.9385 25.5321 94.192 25.5332L94.2932 25.5324C95.5348 25.5229 96.7475 25.3382 97.9221 24.9786C98.1331 24.9124 98.3258 24.8463 98.5275 24.7617C99.4719 24.3761 100.286 23.807 100.97 23.0543L94.5409 23.0576L92.6552 23.0537L92.661 17.8311L92.6478 16.1149L110.878 16.113L110.891 17.8292L110.877 33.8385L105.054 33.8372L103.371 33.8317L103.026 30.8816L102.485 26.2537C101.632 28.9639 100.111 30.9779 97.9139 32.2866C95.7623 33.5765 93.1551 34.224 90.074 34.2477L89.8992 34.249C87.0294 34.2434 84.4675 33.608 82.2409 32.3241C81.7882 32.06 81.3537 31.7773 80.9374 31.4668C79.3185 30.2705 78.0004 28.712 76.9923 26.8005C75.835 24.6225 75.2086 22.1083 75.1132 19.2671C75.111 18.9811 75.1089 18.7043 75.1066 18.409C75.1041 13.3064 76.6275 9.26238 79.6768 6.29544C82.6712 3.37506 87.2956 1.90004 93.5591 1.85185M93.5021 0.422069C86.88 0.473019 81.8796 2.1078 78.6204 5.27935C75.2972 8.51599 73.6204 12.9395 73.6167 18.4297C73.6189 18.7157 73.6212 19.011 73.6236 19.3247C73.7391 22.3872 74.4225 25.1317 75.6732 27.4935C76.7839 29.5887 78.2505 31.3214 80.0359 32.6456C80.4984 32.9834 80.9791 33.3027 81.478 33.5941C83.9079 34.9964 86.728 35.7129 89.846 35.7073L90.0392 35.7059C93.3595 35.6803 96.2512 34.9476 98.6042 33.5362C99.7395 32.8538 100.717 32.0066 101.546 31.0037L101.547 31.0591L101.901 34.0091L102.048 35.2813L103.327 35.2715L105.01 35.2862L110.833 35.2875L112.277 35.2764L112.275 33.8462L112.28 17.837L112.267 16.1208L112.284 14.672L110.84 14.6831L103.417 14.6756L103.847 14.4324C106.705 12.9248 108.886 11.7731 110.324 11.0331C110.507 10.9394 110.681 10.855 110.837 10.7708C111.011 10.6772 111.176 10.5929 111.323 10.5179L112.88 9.72164L111.803 8.33662C111.357 7.76796 110.883 7.21797 110.392 6.70503C108.584 4.81814 106.457 3.34892 104.085 2.32449C101.114 1.05555 97.6595 0.408537 93.8147 0.410436L93.4836 0.412984L93.5021 0.422069ZM91.1983 23.7662C90.5439 23.5959 89.9719 23.3696 89.4729 23.0782C89.1403 22.8777 88.8442 22.6586 88.5847 22.4022C87.5839 21.4318 87.0317 20.1996 86.9003 18.6597C86.8801 18.4292 86.869 18.1801 86.867 17.9125C86.8627 16.1686 87.3945 14.7435 88.4892 13.5725C89.52 12.4573 91.1805 11.8909 93.4246 11.8736L93.535 11.8728C95.0067 11.8707 96.4159 12.1274 97.7258 12.6156C98.9527 13.0768 100.043 13.7696 100.979 14.6759L92.6368 14.6755L91.1928 14.6866L91.1946 16.1168L91.2078 17.833L91.1989 17.8792L91.1928 23.0557L91.1983 23.7662Z" fill="#171717"/>
<path d="M112.492 34.5735L112.523 33.8259C112.747 28.2971 112.863 23.0828 112.863 18.3215C112.864 13.588 112.75 8.37549 112.523 2.81323L112.49 2.05686L147.111 2.05808L147.108 11.2484L124.021 11.2507L124.024 13.9266C124.382 13.9238 124.778 13.9392 125.201 13.9452C126.406 13.9544 127.804 13.9621 129.368 13.9593C130.324 13.9519 131.29 13.9537 132.265 13.9462C135.843 13.9187 139.586 13.8345 143.384 13.7038L144.128 13.6796L144.123 22.5378L143.378 22.5066C138.566 22.3314 133.856 22.2477 129.367 22.2453C127.896 22.2474 126.599 22.2482 125.504 22.2566C124.961 22.2608 124.465 22.2646 124.023 22.268L124.019 25.2853C124.414 25.2823 124.801 25.2793 125.178 25.2764L126.806 25.2639C135.782 25.1948 142.505 25.0416 146.771 24.8242L147.672 24.7804L147.523 25.6673C147.426 26.2309 147.348 26.8221 147.288 27.4223C147.228 27.9949 147.186 28.5857 147.173 29.1856C147.127 30.3947 147.111 31.9634 147.107 33.8458L147.113 34.5655L112.483 34.5644L112.492 34.5735Z" fill="#FDC238"/>
<path d="M113.241 2.77071L146.39 2.77403L146.403 4.49019L146.385 10.5249L123.298 10.5272L123.302 14.6333C123.836 14.6477 124.462 14.6521 125.188 14.6649C126.329 14.6746 127.727 14.6823 129.355 14.679C130.321 14.6716 131.287 14.6734 132.261 14.6659C135.876 14.6381 139.591 14.5541 143.398 14.4233L143.394 16.195L143.391 21.7775C138.551 21.6025 133.878 21.5185 129.352 21.5164C127.862 21.5186 126.575 21.5193 125.489 21.5277C124.634 21.5342 123.898 21.5399 123.3 21.5537L123.298 26.0013C123.933 25.9964 124.567 25.9915 125.183 25.9867L126.802 25.9743C135.816 25.9049 142.483 25.7614 146.795 25.5252C146.689 26.1166 146.611 26.7262 146.551 27.3356C146.492 27.9266 146.45 28.5267 146.427 29.1451C146.382 30.3819 146.366 31.9506 146.362 33.833L115.163 33.8332L113.204 33.8298C113.428 28.2917 113.544 23.1144 113.544 18.2885C113.544 13.4627 113.43 8.28712 113.204 2.75254M111.739 1.32436L111.797 2.82796C112.024 8.38099 112.137 13.5843 112.137 18.3086C112.137 23.0606 112.02 28.2656 111.796 33.7852L111.734 35.2897L113.233 35.2782L115.192 35.2908L146.392 35.2907L147.836 35.2796L147.834 33.8401C147.829 31.9671 147.854 30.4075 147.9 29.2076C147.923 28.6261 147.955 28.0445 148.015 27.4904C148.075 26.8994 148.153 26.3267 148.241 25.7817L148.549 23.9984L146.747 24.0954C142.49 24.3219 135.786 24.4657 126.819 24.5347L124.758 24.5506L124.746 22.9728L125.519 22.9669C126.604 22.9585 127.901 22.9485 129.373 22.9557C133.852 22.9581 138.562 23.0418 143.356 23.2172L144.846 23.2703L144.835 21.7756L144.847 16.193L144.852 14.4214L144.84 12.9266L143.36 12.9842C139.571 13.1148 135.837 13.1989 132.269 13.2264C131.303 13.2338 130.328 13.2413 129.372 13.2394C127.826 13.2421 126.428 13.2344 125.214 13.2253C125.058 13.2265 124.901 13.2277 124.754 13.2288L124.745 11.9832L146.397 11.9827L147.841 11.9716L147.839 10.5414L147.838 4.50683L147.825 2.79067L147.842 1.34187L146.398 1.35298L113.248 1.34044L111.749 1.35197L111.749 1.34275L111.739 1.32436Z" fill="#171717"/>
</g>
<defs>
<clipPath id="clip0_1723_1356">
<rect width="148" height="37" fill="white" transform="translate(0.359863 1.13867) rotate(-0.440817)"/>
</clipPath>
</defs>
</svg>
